<svg id="Layer_1" data-name="Layer 1" xmlns="http://www.w3.org/2000/svg" viewBox="0 0 337.54441 384"><path d="M202.506,48H423.77021v90.919c28.05649,6.89233,44.5032,31.32431,45.0136,54.96424.486,22.5097-13.66059,48.74931-45.0136,56.425V432H131.25149q.006-4.872.01146-9.744.0014-147.28707.015-294.57412c.01331-33.81117,19.59642-62.55232,51.03333-74.48463C188.76994,50.74581,195.76062,49.69592,202.506,48ZM401.06638,409.32967V255.24138a47.887,47.887,0,0,0-4.46236,3.429c-7.99812,7.90867-15.989,15.82651-23.84181,23.87837a12.17541,12.17541,0,0,0-2.87773,5.13412c-1.25678,4.65708.6418,8.393,3.78016,11.8875,10.81421,12.04155,12.41754,29.79536,2.53425,42.01049-8.19166,10.12433-17.9386,18.9905-26.662,28.06606q-56.14443-56.13433-111.15822-111.13827c8.22324-8.41717,16.27074-17.54256,25.25095-25.63276,12.62635-11.37506,31.35054-10.47651,44.757,1.27631,5.67084,4.97137,11.76448,5.26123,16.72755.42423q11.41012-11.12024,22.4848-22.58251a30.95261,30.95261,0,0,0,8.90634-20.44922A54.387,54.387,0,0,1,374.72317,153.328a59.84881,59.84881,0,0,1,26.25893-14.02535V70.70622H221.18274V138.182H153.96518V409.32967ZM350.138,274.90079c2.46011-2.97171,4.949-6.40022,7.86475-9.416,6.94467-7.18288,14.17311-14.09107,21.13438-21.25836,7.959-8.19459,17.6589-12.84946,28.79284-14.77459,5.152-.89082,10.49857-1.15488,15.43088-2.72639,16.23006-5.17119,25.51706-21.59273,22.22724-38.46591-3.17292-16.27351-18.752-28.68219-34.74548-27.67459-16.775,1.05685-30.99508,15.37258-31.90355,32.61763-.60126,11.414-4.19745,21.68026-11.635,30.15773-10.756,12.26-22.01451,24.0961-34.64451,33.917C338.42517,263.09077,344.35062,269.06536,350.138,274.90079Zm-80.01009-17.1505,79.74157,79.79217c1.66152-1.77684,3.66635-4.00223,5.75833-6.14244,5.95985-6.09725,5.97516-12.22208-.06636-18.27751q-18.25621-18.29821-36.55023-36.55871c-8.47682-8.476-16.92118-16.98477-25.44693-25.41123-4.64449-4.59041-10.8386-5.08226-15.53009-1.10425C275.01486,252.60851,272.33948,255.57431,270.12792,257.75029ZM198.58172,72.0942c-18.88115,1.29714-43.73585,26.36507-42.99757,43.17173h42.99757Z" transform="translate(-131.25149 -48)"/><path d="M266.26025,341.07767a44.9934,44.9934,0,1,1-45.2428-44.82458A45.116,45.116,0,0,1,266.26025,341.07767Zm-22.50492.228a22.487,22.487,0,1,0-22.44285,22.43172A22.5219,22.5219,0,0,0,243.75533,341.30571Z" transform="translate(-131.25149 -48)"/><path d="M412.45893,180.10612c4.81838,4.82009,9.97815,9.98166,14.89118,14.89642l-14.95129,14.96492c-4.8464-4.8533-9.99582-10.01006-14.92261-14.94389C402.35617,190.16486,407.524,185.01955,412.45893,180.10612Z" transform="translate(-131.25149 -48)"/></svg>