<svg id="Layer_1" fill="#fff" data-name="Layer 1" xmlns="http://www.w3.org/2000/svg" viewBox="0 0 298.59877 344.01813"><defs><style>.cls-1{fill:#fff;}</style></defs><path class="cls-1" d="M259.4975,103.905h-17.185c-11.377-.001-22.756.091-34.132-.026-16.776-.173-28.493-11.915-28.59-28.647-.09-15.5-.021-31.001-.021-46.502V24.254c-1.559-.088-2.874-.228-4.189-.228q-64.70249-.01653-129.404-.002c-13.883.006-21.933,7.977-21.937,21.834q-.039,126.19347.002,252.389c.005,13.64,8.088,21.67,21.713,21.684,31.383.033,52.765.002,84.147.017,7.257.004,12.324,3.555,13.538,9.383,1.645,7.904-3.835,14.55-12.291,14.585-20.129.082-30.259.039-50.389.026-12.877-.009-25.763.226-38.63-.146A43.45782,43.45782,0,0,1,.2075,302.719c-.095-1.622-.182-3.247-.182-4.87Q.012,172.029.0005,46.21c-.009-17.539,6.953-31.183,22.097-40.313A38.448,38.448,0,0,1,42.02049.129Q90.217-.0045,138.41449.017c13.753-.006,27.507-.071,41.257.099a40.41512,40.41512,0,0,1,28.718,11.914q31.74448,31.36948,63.12,63.112c8.175,8.277,11.935,18.611,11.968,30.236.048,16.625.08,73.252-.007,89.877-.038,7.402-5.164,12.735-11.903,12.761-6.672.027-11.967-5.359-12.026-12.699-.124-15.5-.042-71.002-.044-86.503v-4.909m-55.754-62.064c-.062,1.126-.158,2.082-.159,3.037q-.0165,14.61,0,29.218c.012,4.936.897,5.787,6.008,5.798q14.424.0315,28.849-.005c1.036-.003,2.072-.168,3.078-.256-12.608-12.614-25.031-25.041-37.776-37.792" transform="translate(-0.00049 0.00013)"/><path class="cls-1" d="M116.0804,151.90581c-15.874.001-31.75.085-47.623-.031-8.959-.066-14.672-8.168-11.646-16.179,1.821-4.82,6.2-7.712,12.118-7.765,8.374-.075,16.75-.022,25.124-.022q34.3125,0,68.623.015c7.52.013,12.814,4.462,13.285,10.965.529,7.31-4.636,12.939-12.258,12.986-15.874.098-31.749.03-47.623.031" transform="translate(-0.00049 0.00013)"/><path class="cls-1" d="M91.8434,103.9019c-7.623,0-15.247.049-22.869-.013-7.611-.063-13.051-5.16-12.981-12.03.069-6.75,5.399-11.877,12.786-11.924q23.244-.1485,46.488-.001c7.614.049,12.824,5.248,12.708,12.3-.113,6.832-5.321,11.596-12.888,11.654-7.747.06-15.496.014-23.244.014" transform="translate(-0.00049 0.00013)"/><path class="cls-1" d="M91.9635,199.91721c-7.748,0-15.497.061-23.244-.018-7.356-.075-12.715-5.161-12.728-11.904-.012-6.741,5.318-11.987,12.668-12.039q23.43-.168,46.863.006c7.387.06,12.518,5.276,12.456,12.168-.062,6.856-5.258,11.707-12.771,11.772-7.747.068-15.496.015-23.244.015" transform="translate(-0.00049 0.00013)"/><path d="M298.59778,258.13647a20.88853,20.88853,0,0,0-5.95062-14.92718,56.4644,56.4644,0,0,0-15.11579-11.2074,123.20644,123.20644,0,0,0-40.01471-13.227c-9.65777-1.50452-19.20581-.61786-28.68347,1.56085-12.90192,2.96686-25.21973,7.40589-36.475,14.48249-5.00623,3.147-9.77741,6.67828-12.93714,11.79565-1.451,2.3476-2.22937,5.109-3.313,7.68317v50.07641a73.75845,73.75845,0,0,0,3.261,8.17578c2.38281,4.43763,6.07306,7.82813,10.01953,10.86255,12.22491,9.40448,26.17963,15.03138,41.08289,18.50635a69.06645,69.06645,0,0,0,22.06433,1.86481,102.97444,102.97444,0,0,0,25.63214-5.945c9.72955-3.50873,18.937-8.0069,27.1001-14.42621,5.03436-3.9591,9.593-8.40936,11.86883-14.581a20.82063,20.82063,0,0,0,1.34692-6.88513C298.602,287.34351,298.43451,272.73859,298.59778,258.13647Zm-15.40436,6.52344a39.05983,39.05983,0,0,1-12.11517,11.6817A92.038,92.038,0,0,1,235.155,290.05707c-1.14.18854-2.29547.30957-3.44959.40393-1.56927.12945-3.14422.20123-4.31237.273a82.21266,82.21266,0,0,1-27.97272-5.89716,74.58721,74.58721,0,0,1-19.5506-10.68377,32.63638,32.63638,0,0,1-9.10889-10.17432c-2.995-5.62128-2.51086-10.95123,1.33-15.98566,3.58893-4.70221,8.339-8.01812,13.42688-10.83581a101.78213,101.78213,0,0,1,33.49689-11.32276A62.10407,62.10407,0,0,1,242.734,227.021c10.72888,2.42358,20.96228,6.10827,30.29211,12.03637a36.218,36.218,0,0,1,9.20465,7.97168Q288.93784,255.51581,283.19342,264.65991Z" transform="translate(-0.00049 0.00013)"/><path   fill="#fff" d="M268.26654,244.60333a55.70049,55.70049,0,0,0-10.75.912c-6.9682,1.27234-36.8606,1.98309-43.68664,2.45178-7.983.54749-15.97718,1.10626-23.56324.61505-4.21527-.27307-8.01111,1.5918-8.49811,4.446-.24346,1.43.34766,2.76422.56159,4.14349.15344-.03375.30682-.06756.4588-.09991,2.01263,2.32507,5.08929,3.9577,8.75568,5.16809,7.3186,2.41516,38.91266,3.25116,47.90332,3.33984a106.1246,106.1246,0,0,0,23.15228-2.08722c6.94421-1.45953,11.48883-4.40808,14.11371-8.74859C280.24091,248.9101,277.00525,244.75812,268.26654,244.60333Z" transform="translate(-0.00049 0.00013)"/><path fill="#fff" d="M195.96045,266.65594c-5.30182-.97113-10.3714-2.22375-15.68164-3.37921a26.12067,26.12067,0,0,0,7.28345,8.85834c6.46154,4.96259,38.451,6.84857,50.60278,4.40106a90.64813,90.64813,0,0,0,22.77649-8.2926c1.3385-.66992,2.61358-1.4032,3.6593-1.969-4.65857.71215-9.45648,1.66638-14.14886,2.11956C239.0968,269.48914,205.73645,268.44763,195.96045,266.65594Z" transform="translate(-0.00049 0.00013)"/><path fill="#fff" d="M195.89679,244.71661a23.87182,23.87182,0,0,0,5.35809.57141c4.20825-.10833,8.47132-.30255,12.764-.70227,7.27924-.677,37.63049-1.32861,45.00543-3.1203a38.0698,38.0698,0,0,0,5.30316-1.6903c1.94367-.79242,2.26178-1.78608.91486-2.50525a11.90875,11.90875,0,0,0-2.874-1.04572,62.35352,62.35352,0,0,0-15.15949-1.29767c-8.34607.14783-39.5249,2.19562-47.98352,5.39753-.97113.55731-2.37579,1.24554-3.54394,2.06329C194.16986,243.44574,194.22339,244.37744,195.89679,244.71661Z" transform="translate(-0.00049 0.00013)"/></svg>