<svg id="Layer_1" fill="#fff" data-name="Layer 1" xmlns="http://www.w3.org/2000/svg" viewBox="0 0 273.10681 384"><path d="M294.75,432c-4.78449-1.697-9.92848-2.75526-14.2873-5.20855-14.08982-7.9303-20.69333-20.46719-20.73358-36.50839-.05332-21.24987-.01375-42.5-.01409-63.75,0-1.48093,0-2.96184,0-5.03286-3.59326,0-6.91228-.07324-10.22712.01353-10.72171.28056-19.59771-3.48923-27.16238-11.2004q-23.765-24.22517-48.00147-47.9867a34.80865,34.80865,0,0,1-10.87479-26.14751q.20245-51.18666.00219-102.37456a34.578,34.578,0,0,1,10.63715-25.86255c14.7979-14.72227,29.54361-29.5023,44.0408-44.51919C225.0118,56.29376,232.196,49.99908,242.25,48h115.5c10.18707,2.01664,17.41438,8.45245,24.37216,15.65934,14.39981,14.91533,29.04689,29.595,43.74612,44.21689,7.3341,7.29554,10.73023,15.87069,10.68615,26.20617q-.21729,50.96025.00087,101.92193a35.182,35.182,0,0,1-10.99569,26.46207c-15.92134,15.696-31.80606,31.43459-47.42329,47.4315-7.83082,8.02117-16.9587,12.01005-28.10447,11.61894-3.08846-.1084-6.18393-.0165-9.74684-.0165v4.75225q0,30.914-.00066,61.82794c-.00321,23.80632-11.201,37.95067-34.42436,43.50762-.22339.05347-.40754.2709-.61.41185ZM186.00018,185.0923c0,17.11725.06028,34.23488-.04565,51.35146a12.669,12.669,0,0,0,4.00659,9.6615q24.60716,24.42546,49.05635,49.00974a12.09981,12.09981,0,0,0,8.981,3.88426q51.914-.00975,103.828.00256a12.1104,12.1104,0,0,0,9.03928-3.75435q24.5885-24.709,49.3182-49.27732a12.37167,12.37167,0,0,0,3.85444-9.35133q-.09857-51.539.00405-103.07816a12.84652,12.84652,0,0,0-3.999-9.67581q-24.34059-24.42642-48.5257-49.00732a13.85821,13.85821,0,0,0-10.63849-4.41477q-50.789.15505-101.57862-.00451A14.23286,14.23286,0,0,0,238.34816,75.01q-24.02016,24.4794-48.26885,48.734a13.142,13.142,0,0,0-4.12886,9.9968C186.06757,150.85735,186.00012,167.97505,186.00018,185.0923ZM282.3451,321.75256c0,24.15752-.31609,47.8841.15289,71.59513.19219,9.7175,8.60565,16.43033,18.17314,16.137,9.78726-.30009,17.03911-8.03783,17.08349-18.60123.0924-21.99106.03176-43.98278.02007-65.97423-.0005-.97329-.13868-1.94657-.23074-3.15667Z" transform="translate(-163.44892 -48)"/><path d="M215.57362,185.48972q-.002-17.9946.00442-35.98917c.0182-9.25734,4.29585-13.58078,13.522-13.54385,6.86707.02749,13.79457-.31167,20.5889.45458,22.15809,2.49891,33.86114,27.256,21.96715,46.13169-1.3286,2.10848-1.70324,3.47059-.17811,5.84183A30.11327,30.11327,0,0,1,247.714,234.91452c-6.97584.39668-13.99474.27809-20.986.09388-6.93362-.18269-11.0915-4.9022-11.13407-12.40495C215.52381,210.23256,215.575,197.861,215.57362,185.48972ZM238.341,174.29393c5.12572-.5602,10.63716,1.73936,14.22893-3.65717a7.24588,7.24588,0,0,0,.00154-8.46147c-3.57229-5.28523-9.03644-3.33745-14.23047-3.79319Zm.01063,22.40658V212.6269c5.17886-.51258,10.66952,1.6743,14.23982-3.71918a7.22136,7.22136,0,0,0-.04111-8.457C248.956,195.22083,243.51688,197.13889,238.35167,196.70051Z" transform="translate(-163.44892 -48)"/><path d="M323.57389,185.63917c-.00146-12.11488-.02495-24.2298.00627-36.3446.02326-9.01694,4.33825-13.37514,13.33949-13.33518,7.861.0349,15.77362-.26664,23.56981.51464,12.67012,1.26971,23.03492,11.65351,23.51924,24.28161.63112,16.45574.66247,32.97314.0152,49.42715-.52691,13.39434-11.74171,23.93659-25.20477,24.68358-8.09361.44908-16.234.3341-24.34412.12006-6.69674-.17674-10.83147-4.97377-10.87793-12.25347C323.51814,210.36882,323.57536,198.00381,323.57389,185.63917Zm22.76988,26.82017c3.82866,0,7.43895.17609,11.023-.05479,2.95725-.19048,4.46384-2.30389,4.47954-5.09555q.12249-21.74539.0022-43.49175c-.01852-3.232-2.02009-5.11221-5.20166-5.29491-3.33518-.19153-6.68985-.04283-10.30307-.04283Z" transform="translate(-163.44892 -48)"/><path d="M310.81712,185.24905c.00059,12.48677.03943,24.97371-.01605,37.46024-.02708,6.09517-2.936,10.3575-7.86019,11.86711a11.1576,11.1576,0,0,1-14.34016-8.85177,24.414,24.414,0,0,1-.267-4.10081q-.02291-36.14919-.01113-72.2984c0-.3746-.00539-.74943.00515-1.12377.20415-7.2516,4.97688-12.35353,11.43451-12.22565,6.397.12668,10.9772,5.05112,11.02927,12.18765C310.88173,160.52485,310.81652,172.88719,310.81712,185.24905Z" transform="translate(-163.44892 -48)"/></svg>