<svg id="Layer_1" data-name="Layer 1" xmlns="http://www.w3.org/2000/svg" viewBox="0 0 149.37693 149.3406"><path d="M149.97849,47.111c-.16342-.84772-.3278-1.69448-.5285-2.53312-1.75852-7.31646-5.96174-13.64375-12.84956-19.3441-9.1758-7.59361-20.39873-12.74634-34.311-15.754A124.69972,124.69972,0,0,0,78.85628,6.75749a7.98859,7.98859,0,0,1-.9452-.10035c-.173-.02485-.346-.0497-.51991-.06977l-.05639-.00669-3.57389.00191q-1.39056.08745-2.783.16534c-2.00413.11516-4.07659.23415-6.11752.40474C49.859,8.40848,37.89157,11.53079,27.19905,16.97836c-9.04773,4.61035-15.42615,9.69618-20.0733,16.00579A30.96264,30.96264,0,0,0,.86057,51.77155l.00144.43581c.053,18.53031.108,37.69139-.01769,56.53422-.07263,10.897,3.97481,19.89029,12.37314,27.49489,6.22216,5.63393,13.77421,9.85531,23.76666,13.28536a117.63875,117.63875,0,0,0,34.38893,6.18155c.44058.01434.88929.07073,1.36428.13.23176.02963.46352.0583.69528.08219l.05113.00573h4.11482l.03345-.00191c.87447-.06021,1.749-.11564,2.62343-.17107,1.86459-.11851,3.79322-.23988,5.69222-.409,15.36786-1.36476,28.36364-4.8837,39.73184-10.75559a51.17824,51.17824,0,0,0,16.90178-13.31212,33.6394,33.6394,0,0,0,7.39435-17.28215,1.18934,1.18934,0,0,1,.0755-.18637c.03823-.086.0755-.173.108-.26l.06117-.16439v-65.042S150.05113,47.48757,149.97849,47.111ZM17.52772,36.96183c5.03135-5.53119,11.48814-9.71482,20.31893-13.1659,11.16224-4.36283,23.40158-6.48355,37.4171-6.48355q1.90521,0,3.82094.05113c12.52748.33211,23.4226,2.32429,33.3085,6.09123,9.07927,3.45825,15.73389,7.6696,20.94253,13.25335a21.59674,21.59674,0,0,1,6.11369,12.08307c.47977,3.66516-.30583,7.30308-2.47147,11.448-2.69033,5.14986-7.00251,9.33015-13.57017,13.15539-7.82633,4.55827-16.875,7.6629-28.47736,9.77025a106.26167,106.26167,0,0,1-18.92407,1.75946h-.001q-1.10384,0-2.20817-.0258c-16.92949-.41669-31.29529-3.8109-43.91834-10.37522a41.83222,41.83222,0,0,1-12.64694-9.69C9.46724,55.862,9.57524,45.70325,17.52772,36.96183Zm6.0769,46.20488a63.98336,63.98336,0,0,1-12.009,7.65908V74.2308A59.97028,59.97028,0,0,0,23.60462,83.16671ZM12.86241,118.17733a15.977,15.977,0,0,1-1.3638-6.10987c-.03919-1.68206-.03441-3.39852-.03011-5.05859.00383-1.42879.00717-2.85758-.01481-4.28541a.77628.77628,0,0,1,.02389-.26187.84314.84314,0,0,1,.29293-.15387A73.93107,73.93107,0,0,0,33.632,88.61714a1.88928,1.88928,0,0,1,.65036-.35648A112.075,112.075,0,0,0,51.8961,93.23419,105.74516,105.74516,0,0,1,12.86241,118.17733ZM36.4169,137.22277a2.38024,2.38024,0,0,1-.74306.107,2.88315,2.88315,0,0,1-1.09764-.20452,54.2396,54.2396,0,0,1-14.52874-9.11941c-.31061-.27429-.60879-.56292-.90458-.85537l.14909-.064c1.00254-.43389,1.98262-.85727,2.96748-1.27014A114.41667,114.41667,0,0,0,63.53811,96.27048a2.91221,2.91221,0,0,1,2.42512-1.19273c.13954,0,.28433.00574.43629.01816,3.11753.24371,6.28572.36795,9.41759.36795a123.87522,123.87522,0,0,0,17.46469-1.252q-.152.24944-.30678.49315c-5.4447,8.52686-12.80082,16.30254-22.49031,23.77144A118.791,118.791,0,0,1,36.4169,137.22277Zm66.75079-7.57211a94.23663,94.23663,0,0,1-19.897,13.90562,14.07754,14.07754,0,0,1-6.78556,1.683l-.16056-.001A120.90122,120.90122,0,0,1,51.38,142.63975q1.0551-.54906,2.10591-1.08952c3.09269-1.597,6.29-3.24751,9.32536-5.03947,16.9252-9.991,29.78335-21.925,39.3099-36.48433,1.014-1.55016,1.9248-3.18443,2.805-4.76518.60115-1.079,1.20133-2.158,1.83784-3.216a1.852,1.852,0,0,1,.85154-.76648,84.39781,84.39781,0,0,0,24.212-10.81867q-.07884.36126-.15578.72109c-.4358,2.01225-.84772,3.91316-1.38387,5.79878C125.67,103.19844,116.799,117.15567,103.16769,129.65066ZM130.741,128.2601c-6.17295,5.43131-13.83586,9.44148-24.00942,12.5485,15.70236-13.21272,26.72746-29.21422,32.86409-47.69388q-.00429.55336-.01051,1.1048c-.04587,4.81584-.09462,9.797.10035,14.69791C139.98079,116.37581,137.05535,122.70263,130.741,128.2601Z" transform="translate(-0.84336 -6.58068)"/><path d="M46.73478,71.53808c9.54374,3.30819,19.46691,4.13823,31.42956,4.36665l.05352.001.05256-.00478c.755-.0669,1.67824-.13666,2.72474-.215,2.84325-.21408,6.73682-.507,10.55585-1.01115a57.367,57.367,0,0,0,20.54686-6.35548c5.0949-2.80884,8.65207-6.26327,10.87505-10.56063a14.10351,14.10351,0,0,0-.59349-14.88331,21.53587,21.53587,0,0,0-2.69129-3.42575,33.93768,33.93768,0,0,0-13.96009-8.36249A93.24439,93.24439,0,0,0,75.7397,26.08439a99.3157,99.3157,0,0,0-24.66408,3.204c-7.40534,1.90235-13.01728,4.55015-17.662,8.3319a18.35865,18.35865,0,0,0-6.85246,10.44881c-1.16358,5.33.47212,10.12577,5.00172,14.66063C35.26288,66.43361,40.084,69.23242,46.73478,71.53808ZM41.83054,57.41025H66.11328l1.0336,7.51621C58.14264,63.95163,49.44613,62.49321,41.83054,57.41025ZM82.34941,46.39232a40.478,40.478,0,0,1,12.52652-7.30164,1.4051,1.4051,0,0,1,.49315-.08315,1.31749,1.31749,0,0,1,.30678.03345c6.56288,1.59509,11.47333,3.80947,15.45579,6.96906,2.04426,1.6228,3.11275,3.23126,3.17392,4.78.06212,1.55447-.88213,3.25038-2.805,5.04139-3.19208,2.9737-7.15924,4.5339-10.97062,5.7768a83.06747,83.06747,0,0,1-20.96356,3.67089l-.15291.00383-.14432.05017a.9934.9934,0,0,1-.3192.0669c-.14145,0-.37751-.12233-.78369-1.17935C75.52275,57.33762,76.93051,51.33957,82.34941,46.39232Zm-42.383-.41573c3.51368-2.85806,7.77329-4.86123,13.81148-6.4955A82.68671,82.68671,0,0,1,75.64126,36.732q.81712,0,1.63427.0129l-.2915.29627c-1.8493,1.87368-3.68475,3.734-5.50777,5.60669a5.00209,5.00209,0,0,0-1.11961,1.61563c-.5892,1.52819-1.58888,2.1279-3.82,2.29276-4.34132.3192-8.74047.4812-13.07462.4812-3.432,0-6.91172-.10131-10.34368-.302-1.19608-.06976-2.39072-.1596-3.71294-.259C39.59512,46.29532,39.77767,46.13046,39.96642,45.97659Z" transform="translate(-0.84336 -6.58068)"/></svg>