<svg id="Layer_1" data-name="Layer 1" xmlns="http://www.w3.org/2000/svg" viewBox="0 0 388 338.55078"><path d="M304.61133,408.77539q-34.08544,0-68.167-.02344l-12.58594-.00683a27.57281,27.57281,0,0,1-18.42969-7.01465c-4.9126-4.23926-7.99316-9.80274-9.38672-16.96875,0,0-33.04492.01367-39.14892.01367q-13.74316,0-27.4834-.03516a24.00629,24.00629,0,0,1-23.39258-16.97656c-.16553-.50781-.36816-1.00293-.56885-1.498-.10595-.26074-.44824-1.13183-.44824-1.13183V272.25s.41553-1.66211.59131-2.373c.38916-1.57422.77832-3.14746,1.20361-4.71093a52.6321,52.6321,0,0,1,50.21387-38.84913q2.0515-.01172,4.11328-.0371c2.00977-.02149,4.02344-.043,6.03613-.043a110.8578,110.8578,0,0,1,18.57325,1.25195c15.64746,2.67969,27.86767,11.68164,36.35791,26.772,1.03808-.9873,2.04248-1.9414,3.06-2.88086,17.84717-16.48681,38.8462-24.90381,62.41407-25.01709q3.43578-.01611,6.88525-.02148c10.37256,0,21.45752.2124,32.24072,1.75342,17.65039,2.523,33.92871,11.0708,48.38477,25.40722q.36768.36328.7373.72461.42774-.65625.85254-1.3164a75.5381,75.5381,0,0,1,4.90918-7c10.49512-12.79834,24.0459-19.37793,40.27442-19.55664l3.00293-.03809c2.30273-.03125,4.61523-.0625,6.92578-.0625a104.76387,104.76387,0,0,1,19.55078,1.47461c21.27441,4.06006,36.97363,20.44043,40.96973,42.749a3.72617,3.72617,0,0,0,.26464.62891c.10059.209.2002.418.28711.62891l.15137.36718v92.623l-.45312.55273c-.06153.0752-.12793.14844-.19727.22168-4.43262,13.49219-12.44336,19.25879-26.72754,19.26172l-63.667.001c-.14259.54394-.27246,1.05176-.38574,1.56152-2.96289,13.37793-13.96973,22.38086-27.38868,22.40235Q339.398,408.78126,304.61133,408.77539Zm33.668-26.51172q16.87061,0,33.7373-.00683c3.55274-.002,3.72656-.17579,3.72754-3.7168q.00147-8.915.03711-17.8291c.042-14.29688.08594-29.08106-.10937-43.60938-.41114-30.60644-23.0918-57.56152-52.75782-62.69922-8.207-1.42187-16.78808-1.61718-24.83984-1.61718-1.89942,0-3.79834.01074-5.69336.02148q-2.09911.01318-4.1919.02051c-36.15673.09473-65.72753,29.71191-65.91845,66.02246-.07617,14.502-.05469,29.252-.03418,43.51562q.01171,8.03321.01855,16.06446c.00244,3.68359.00244,3.82715,3.98828,3.8291,11.49219.00391,72.69922.00293,72.69922.00293ZM466.4834,358.1543q.00147-11.07129.02246-22.14258c.02734-19.07715.05663-38.80371-.10254-58.19824-.09863-11.9795-9.084-22.58692-20.45605-24.14942a111.36948,111.36948,0,0,0-15.09278-1.01269,116.73153,116.73153,0,0,0-12.38965.66114A24.5993,24.5993,0,0,0,400.832,263.90039c-4.75488,6.917-5.96582,16.02637-3.41113,25.65039.25879.9707.52539,1.94531.793,2.92188,1.42968,5.22461,2.90918,10.62793,3.16894,16.10449.53907,11.38769.63672,22.96777.73047,34.166.03809,4.48633.0752,8.97364.14063,13.459.00976.65039.01074,1.30078.00879,1.95215Zm-270.6958-.04492c-.00977-3.59278-.04395-7.165-.07813-10.72266-.09375-9.73535-.19043-19.80274.25293-29.64551a134.44928,134.44928,0,0,1,2.40674-17.791c.46875-2.58887.95361-5.26661,1.355-7.88965.21826-1.42578.49072-2.85743.75391-4.24219a49.48517,49.48517,0,0,0,1.16113-8.98633,25.27529,25.27529,0,0,0-21.29541-25.38769,78.63513,78.63513,0,0,0-11.93457-.72559c-1.353,0-2.707.01367-4.06006.02734-1.36377.01368-2.72607.02735-4.08447.02735l-.64746-.001c-17.07031,0-28.106,11.08106-28.11426,28.23047q-.01245,26.24561-.00439,52.49121L131.5,358.10938Z" transform="translate(-105 -70.22461)"/><path d="M299.0127,204.73486a67.21686,67.21686,0,1,1,.0332,0Zm.00292-107.99951a40.76082,40.76082,0,1,0,.17187.00049Z" transform="translate(-105 -70.22461)"/><path d="M166.98389,204.72656a43.2439,43.2439,0,1,1,.01611,0Zm.02685-59.9873a16.74321,16.74321,0,0,0-.26758,33.48437l.21485.00147a16.72445,16.72445,0,0,0,11.92529-28.50489,16.58165,16.58165,0,0,0-11.7998-4.981l-.07276-2Z" transform="translate(-105 -70.22461)"/><path d="M430.96094,204.72656a43.2554,43.2554,0,1,1,.03808,0Zm.06054-59.98779a16.744,16.744,0,0,0-.34082,33.48486l.26856.002A16.72423,16.72423,0,0,0,442.915,149.75293a16.56074,16.56074,0,0,0-11.76856-5.01367Z" transform="translate(-105 -70.22461)"/></svg>