<svg id="Layer_1" data-name="Layer 1" xmlns="http://www.w3.org/2000/svg" viewBox="0 0 405.25296 470"><path d="M3977,637c-6.0523-2.156-12.5904-3.47159-18.061-6.63388-13.55633-7.83633-20.80855-20.19745-20.83553-35.83157q-.25872-149.9497-.01565-299.90006a41.97828,41.97828,0,0,1,40.77328-41.71957c13.4695-.39142,26.95969-.07183,41.13891-.07183V295.2518c-5.7567,0-11.038-.04747-16.31813.00919-14.05469.15078-22.897,8.79831-22.90467,22.7299q-.07,126.70793.00121,253.41594c.00828,13.95181,8.89044,22.57837,22.98357,22.58334q93.96883.03315,187.93767.00428c14.95129-.00306,23.53137-8.54316,23.53628-23.55909q.0407-123.709.01386-247.41793c0-2.13057,0-4.26114,0-7.01743H4258V600c-.32227.91748-.72147,1.81583-.95532,2.75534q-6.46875,25.98546-32.34394,32.84009c-1.89071.504-3.8.93808-5.70074,1.40457Z" transform="translate(-3852.74704 -167)"/><path d="M4020,167v43h-5.6615q-47.48392,0-94.96784.00348c-15.53686.00561-24.10867,8.544-24.11209,24.12071q-.02735,124.70775-.05943,249.41548a36.28517,36.28517,0,0,1-1.24889,10.81784,20.7769,20.7769,0,0,1-22.65862,14.07343c-10.47069-1.59287-17.884-9.55182-18.46424-19.8476-.07492-1.3295-.07331-2.66449-.07336-3.99691q-.00505-135.954.00694-271.90791c.0056-21.03541,10.80768-36.98452,29.15233-43.09492,3.28466-1.09409,6.7206-1.734,10.0867-2.58357Z" transform="translate(-3852.74704 -167)"/><path d="M4188,167q-.06972,40.24289-.1449,80.48576c-.01,4.66326,2.46366,6.53583,6.91055,6.51782,11.16553-.04521,22.33176.03773,33.49689-.04164,3.91074-.02777,7.3523.54449,9.04627,4.65736,1.64764,4.00044-.62857,6.63395-3.19132,9.19493q-41.72973,41.70146-83.45639,83.40591c-5.226,5.21608-8.15475,5.16963-13.48718-.15482q-41.56994-41.50767-83.09853-83.05678c-2.67917-2.6773-5.13417-5.38748-3.2939-9.60238,1.79528-4.11186,5.32685-4.46354,9.17935-4.44035,11.16532.06719,22.33146-.01205,33.49692.03929,4.48123.02061,6.892-1.92767,6.88849-6.552q-.03034-39.49606-.05627-78.99214A7.52881,7.52881,0,0,0,4100,167Z" transform="translate(-3852.74704 -167)"/></svg>