<svg id="Layer_1" data-name="Layer 1" xmlns="http://www.w3.org/2000/svg" viewBox="0 0 384 384"><defs><style>.cls-1{fill:#fff;}</style></defs><path d="M492,144c-.55875,2.275-1.06581,4.56426-1.68526,6.82265a51.96646,51.96646,0,0,1-13.58855,23.37044Q382.619,268.33414,288.503,362.46629c-8.20644,8.20347-19.78186,8.36048-27.3951.589-7.49183-7.64751-7.1961-19.01639.89644-27.11709Q334.61581,263.25389,407.304,190.64615a31.87641,31.87641,0,0,1,3.28553-2.582c-19.73571-19.75245-38.874-38.907-58.89137-58.94137a16.14545,16.14545,0,0,1-2.0608,3.26463q-96.86161,96.95454-193.8266,193.80577c-7.15391,7.13946-10.63193,15.29395-10.3702,25.47459.36246,14.09821.091,28.21271.091,42.65211,1.36733.06537,2.56715.1723,3.767.17251,13.99807.00254,27.99625.01806,41.99418-.03138,8.14713-.02877,14.96969-3.2143,20.894-8.73152,5.6139-5.22817,12.24-6.60869,19.45051-3.96673a18.63112,18.63112,0,0,1,6.6773,30.75407,65.12165,65.12165,0,0,1-36.74679,18.736c-.95439.15706-1.87919.49393-2.81775.74716H123a21.65194,21.65194,0,0,1-15-15V341.25a5.30391,5.30391,0,0,0,.58-1.3353c2.08119-15.72232,9.23826-28.764,20.43461-39.88437q38.70981-38.44717,77.18555-77.13,79.01362-79.01419,157.99756-158.058c6.94219-6.95649,14.71685-12.32672,24.252-14.94705C390.95116,49.20785,393.48244,48.62881,396,48h12.75a12.89992,12.89992,0,0,0,2.04952.70526,49.0481,49.0481,0,0,1,26.93962,13.59443q20.09743,19.86336,39.96323,39.96063a48.41565,48.41565,0,0,1,12.98076,24.0205c.37227,1.67125.87458,3.31353,1.31687,4.96918ZM380.33723,102.49l57.74427,57.74555c3.11895-3.23616,6.58088-6.8304,10.04577-10.42177.8673-.899,1.78662-1.75149,2.60973-2.68884,5.05177-5.75272,5.05989-13.29725-.0477-19.035-1.74177-1.95667-3.6692-3.74882-5.52372-5.60423C434.3906,111.7057,423.65584,100.885,412.817,90.16943c-5.72639-5.66129-13.37523-6.52709-18.90257-1.63989C388.89615,92.96667,384.5237,98.13424,380.33723,102.49Z" transform="translate(-108 -48)"/><path d="M300.75,432c-1.83231-.75792-3.73527-1.381-5.48466-2.29724A18.7311,18.7311,0,0,1,285.8346,409.094a18.92042,18.92042,0,0,1,17.00354-14.5405c1.49315-.09469,2.99581-.0517,4.49409-.05177,53.69518-.00208,107.39131.17065,161.08472-.13744,11.6795-.067,19.77727,3.76068,23.58305,15.1357V417a21.77952,21.77952,0,0,1-15,15Z" transform="translate(-108 -48)"/><path class="cls-1" d="M108,417a21.65194,21.65194,0,0,0,15,15H108Z" transform="translate(-108 -48)"/></svg>