<svg id="Layer_1" data-name="Layer 1" xmlns="http://www.w3.org/2000/svg" viewBox="0 0 390 390"><path d="M294.27173,434.25488l-.7539-.5c-.14112-.09375-.28028-.19824-.41846-.30468-10.04639-2.93262-15.94824-9.751-17.54492-20.27149-1.47022-9.68457-2.98926-19.37109-4.41895-28.46289q-.94189-5.98242-1.93066-11.97559l-.46436-2.85058a36.47933,36.47933,0,0,1-5.40771.417c-8.73242,0-16.55274-3.375-23.24414-10.03223-15.83985-15.75879-31.89453-31.8291-47.42041-47.37109q-8.88867-8.89746-17.77979-17.792a33.10672,33.10672,0,0,1-9.9248-21.09863,65.70785,65.70785,0,0,1-.09961-6.95508l.01611-.77344q-4.97022-.76758-9.94287-1.50488c-8.0376-1.20508-16.34912-2.4502-24.50391-3.89942-5.62841-1.002-12.13818-2.28515-18.18213-4.84472-6.95214-2.94532-9.48339-10.22657-11.1582-15.04493l-.1665-.47851v-8.62891l.24756-.57129c.29394-.67871.5581-1.37695.82324-2.07422a25.84978,25.84978,0,0,1,2.42041-5.1621l3.56494-5.4336c11.833-18.04,24.06934-36.69433,36.37988-54.86865,5.23145-7.72315,13.21192-12.24268,23.07813-13.07129q11.06982-.92871,22.146-1.78857c10.36573-.8208,21.085-1.66944,31.61084-2.60547a6.3266,6.3266,0,0,0,3.32911-1.833c2.77685-2.88037,5.51953-5.9209,8.17187-8.86084,2.61231-2.89551,5.31348-5.88965,8.07568-8.76514C285.43238,80.3623,341.03882,53.28809,406.04859,46.377c4.73926-.5039,9.48144-.97558,14.22412-1.44677l6.75293-.6753h31.24072l.33154.07617c.335.07666.66944.16456,1.00342.25293a11.13287,11.13287,0,0,0,1.51221.33106A32.55792,32.55792,0,0,1,489.802,70.79639c.30078,1.38574.53662,2.7749.76416,4.11767.10254.604.20507,1.208.313,1.81055l.04737.26318v31.17627l-.01709.15821c-.30957,2.91211-.59961,5.82714-.88916,8.74169-.62647,6.29981-1.27442,12.81348-2.12549,19.2168-4.5332,34.103-13.83984,63.96631-28.45215,91.29541-15.9043,29.74805-38.18555,56.69922-68.1167,82.39453-1.89209,1.624-2.5415,2.76953-2.67431,4.7168-.70459,10.334-1.54737,20.82422-2.36182,30.96777q-.82764,10.30079-1.61768,20.6045c-.84863,11.32812-6.34521,20.36718-16.33789,26.86718-4.4707,2.90821-8.9917,5.91993-13.36377,8.832-6.1582,4.10254-12.52636,8.34473-18.89013,12.38965-7.30469,4.64258-14.82666,9.18067-22.10059,13.57032q-4.875,2.9414-9.7417,5.89746l-.71924.43847Zm8.41895-31.918,7.9165-5.24023c15.04981-9.959,29.26514-19.36426,43.65332-29.07129a5.206,5.206,0,0,0,1.74512-3.05176c.89551-8.88672,1.59473-17.75586,2.335-27.14648q.13916-1.76222.27979-3.54492A258.40015,258.40015,0,0,1,296.65162,363.333ZM199.68335,246.55664c-2.11963,7.97266-4.311,16.21777-6.12353,24.37207a5.977,5.977,0,0,0,1.5625,3.88281c20.17627,20.4336,41.49609,41.76856,65.17773,65.22168a6.19637,6.19637,0,0,0,3.2041,1.67481c8.44092-1.72852,16.66651-3.69922,25.375-5.78613q1.6421-.394,3.29-.78809l-91.66211-91.67871Q200.09547,245.00635,199.68335,246.55664Zm12.62305-32.60352c.17285.20215.45557.48438.67871.707,33.07471,33.05078,70.5625,70.50976,107.57715,107.64453a3.35241,3.35241,0,0,0,.65967.55176,3.739,3.739,0,0,0,.769-.37989c3.2041-1.92285,6.49756-3.79,9.68311-5.5957,5.85547-3.31934,11.91064-6.75195,17.47461-10.58106,37.62939-25.89648,65.43164-55.96093,84.9956-91.90918,13.894-25.52783,22.59277-54.25683,25.85547-85.38769,1.46045-13.93848,1.71094-28.30713,1.95264-42.20313q.06078-3.4497.12549-6.897c.11425-5.79834-.74659-6.6333-7.083-6.874-1.96924-.0752-4.08008-.10986-6.64209-.10986-1.79932,0-3.59912.01709-5.39893.03369-1.81885.01709-3.63721.03418-5.45556.03418h-2.88184l-.01074-.27051q-2.28882.15087-4.5791.29443c-5.43653.34473-11.0586.70117-16.54688,1.22656C379.22632,77.51855,350.28785,85.58887,325.01,98.90967c-47.75244,25.16308-85.645,63.81543-112.625,114.8833C212.35279,213.85449,212.32691,213.9082,212.3064,213.95312Zm-40.43408,24.55665A258.29767,258.29767,0,0,1,200.884,176.56934q-1.92261.15087-3.8252.29882c-9.46142.7378-18.39844,1.43457-27.36279,2.46-.66406.07618-2.37207,1.291-3.72168,3.28907-7.90283,11.69531-15.80566,23.68554-23.44873,35.28222q-3.49073,5.29542-6.98535,10.58985c-.86719,1.31347-1.731,2.62793-2.63623,4.00879Z" transform="translate(-100.92652 -44.25488)"/><path d="M111.4939,434.25488l-.61523-.29492a19.949,19.949,0,0,1-9.665-9.6748l-.28711-.60743v-7.73632l.67041-.82618c.7417-.915,1.46045-1.85253,2.17969-2.79a63.68579,63.68579,0,0,1,5.26123-6.27442c26.29882-26.46094,46.48535-46.624,65.45312-65.3789a19.9636,19.9636,0,0,1,9.41162-5.17676,13.345,13.345,0,0,1,2.80274-.30469c4.50146,0,8.57373,2.47363,11.17236,6.78711a13.81576,13.81576,0,0,1-.48242,15.5498,23.43912,23.43912,0,0,1-2.98584,3.41993l-8.53223,8.53906c-19.18457,19.20117-39.022,39.05469-58.59521,58.52246a38.16082,38.16082,0,0,1-5.105,4.05762c-.73633.51855-1.47315,1.03613-2.18653,1.57812l-.8042.61035Z" transform="translate(-100.92652 -44.25488)"/><path d="M115.46412,366.80762a14.52727,14.52727,0,0,1-13.35889-9.25782c-.23242-.56738-.457-1.13964-.68164-1.71191l-.49707-1.26172V350.085l.51562-.76172c.61182-.90429,1.188-1.8457,1.79834-2.84375a36.71521,36.71521,0,0,1,4.79492-6.64844c6.98291-7.18847,14.189-14.377,21.15772-21.32812q5.96045-5.9458,11.90039-11.91016c3.4082-3.43261,6.981-5.10156,10.92285-5.10156a14.55429,14.55429,0,0,1,13.87451,10.3584,13.61166,13.61166,0,0,1-3.30859,13.40332C150.634,337.64941,137.94556,350.333,124.86939,362.9502A13.515,13.515,0,0,1,115.46412,366.80762Z" transform="translate(-100.92652 -44.25488)"/><path d="M180.5813,434.25488l-1.22558-.51074c-.42334-.17969-.84668-.35937-1.27686-.52246a14.754,14.754,0,0,1-9.35889-10.498,13.71317,13.71317,0,0,1,3.73829-12.708c13.09863-13.44433,26.12255-26.334,37.13525-37.16992a13.94881,13.94881,0,0,1,9.8335-4.041,14.14953,14.14953,0,0,1,10.18457,24.13281C217.80445,404.95508,205.3855,417.35449,192.7,429.791a17.36286,17.36286,0,0,1-5.14112,3.15527c-.69629.31836-1.354.61914-1.9458.94238l-.67139.36621Z" transform="translate(-100.92652 -44.25488)"/><path d="M366.78736,227.36523a59.21043,59.21043,0,0,1,.13916-118.42041l.2251.00049a59.21009,59.21009,0,1,1-.2417,118.41992Zm.11035-89.91455a30.78786,30.78786,0,0,0-30.59424,30.65821,30.3423,30.3423,0,0,0,30.39307,30.75634l.21191.001a30.829,30.829,0,0,0,30.84619-30.56348,30.96015,30.96015,0,0,0-30.75-30.852Z" transform="translate(-100.92652 -44.25488)"/></svg>