<svg id="Layer_1" data-name="Layer 1" xmlns="http://www.w3.org/2000/svg" viewBox="0 0 311.46728 310.27588"><path d="M299.77344,395.13965c-71.82276,0-135.30518-50.8252-150.94727-120.85156A155.01113,155.01113,0,0,1,261.04346,89.92627a153.12217,153.12217,0,0,1,38.86572-5.0625,159.0007,159.0007,0,0,1,37.77637,4.6543c4.89746,1.19922,7.93554,4.03027,9.03027,8.41357a10.94691,10.94691,0,0,1-10.60937,13.44385,16.084,16.084,0,0,1-3.80274-.49561,141.2258,141.2258,0,0,0-33.127-4.10156,122.06443,122.06443,0,0,0-42.44483,7.56494c-48.72119,18.00244-78.10791,52.33545-87.34375,102.04639-10.02929,53.98144,13.14356,106.29883,60.4751,136.53515a129.02782,129.02782,0,0,0,69.66162,20.00782c39.0503,0,75.58838-16.3916,100.24365-44.97071,22.8545-26.49023,34.00489-57.26855,33.14161-91.479-.19434-7.65869-1.54395-15.49463-2.84961-23.07227-.33985-1.97607-.68067-3.95068-1.001-5.92285-1.18945-7.31347,1.90625-12.77441,8.0791-14.25293a11.00543,11.00543,0,0,1,2.56153-.30517c5.34765,0,9.77539,3.95068,10.76757,9.60693,1.51172,8.625,2.8252,17.4209,4.09472,25.92676q.79542,5.33349,1.60743,10.66455l.30469,1.97852-1.374.21c-.78028,76.126-55.92579,139.88183-131.72852,151.95507A150.5916,150.5916,0,0,1,299.77344,395.13965Z" transform="translate(-145.00733 -84.86377)"/><path d="M379.00293,322.98535c-4.24316,0-7.98145-2.59961-10.25488-7.13281-9.75782-19.45117-25.17481-28.90625-47.13184-28.90625l-.55469.002q-4.084.02929-8.16992.02735-5.56641,0-11.13183-.02735-5.55762-.02051-11.11475-.02734c-5.32227,0-9.71582.02832-13.82715.08984-20.42871.30469-35.55566,9.68653-44.96045,27.88379-.09375.18164-.18408.36621-.2749.55078-.1333.27149-.26758.54395-.41016.81153-2.27343,4.26464-5.96386,6.71093-10.124,6.71093a10.97207,10.97207,0,0,1-4.68213-1.07715c-5.81982-2.72753-7.83887-9.06933-4.91064-15.42187a68.75208,68.75208,0,0,1,28.51269-31.54c3.4043-1.959,7-3.58105,10.47705-5.15039q.93091-.42041,1.85742-.83984a69.806,69.806,0,0,1-23.26416-49.918A71.029,71.029,0,1,1,347.71,268.98535a71.679,71.679,0,0,1,23.68555,14.06543,70.53008,70.53008,0,0,1,17.0791,23.0957c3.05273,6.665,1.13867,12.99512-4.7627,15.752A11.08536,11.08536,0,0,1,379.00293,322.98535Zm-78.916-156.03906a48.76572,48.76572,0,1,0,.09082,0l-.09082-2Z" transform="translate(-145.00733 -84.86377)"/><path d="M407.294,192.03076a11.91233,11.91233,0,0,1-1.25879-.06689,10.736,10.736,0,0,1-9.70118-9.96631c-.10937-1.41992-.09668-2.8291-.085-4.19238.00489-.52491.00977-1.04981.00684-1.57373-.00684-1.35938-.00488-2.71924-.00293-3.82227v-.021q-1.28467-.81152-2.52734-1.60156c-3.24219-2.0581-6.30664-4.00342-9.42188-5.8208-.01855-.00146-.043-.00244-.07226-.00244a2.92284,2.92284,0,0,0-1.123.27051c-1.293.6372-2.53418,1.3623-3.84766,2.12988-1.06738.62353-2.1709,1.26807-3.30469,1.86084a12.59092,12.59092,0,0,1-5.86718,1.51025,10.5036,10.5036,0,0,1-9.21192-5.3291,11.1843,11.1843,0,0,1-1.14257-8.98388,9.90082,9.90082,0,0,1,5.39062-6.082c6.11621-2.8247,7.97168-5.9707,7.63574-12.94677-.25683-5.333-1.46-7.376-5.59765-9.50391a16.81741,16.81741,0,0,1-7.11719-7.40039c-1.80957-3.90039-.63574-8.29883,3.0625-11.47949a10.61956,10.61956,0,0,1,7.03222-2.78467,11.27219,11.27219,0,0,1,4.916,1.19141c1.30566.63086,2.54688,1.35839,3.74707,2.06152a41.42726,41.42726,0,0,0,4.083,2.19775,1.94625,1.94625,0,0,0,.71094.106,3.2149,3.2149,0,0,0,1.33691-.27441,97.2276,97.2276,0,0,0,9.7832-5.67139,3.73937,3.73937,0,0,0,1.44532-2.05371,31.45645,31.45645,0,0,0,.13281-4.71143c-.02246-1.08789-.0459-2.2124.001-3.34375a10.90951,10.90951,0,0,1,10.3457-10.76123c.19726-.01074.39453-.01562.58984-.01562a11.01927,11.01927,0,0,1,10.90137,10.11963,62.3183,62.3183,0,0,1,.085,8.90429c-.0498,1.0293-.00977,1.29639,1.34766,1.92871,2.92285,1.35987,5.67382,2.96338,8.58691,4.66065.88867.51806,1.792,1.04443,2.71777,1.57422q.60352-.34936,1.24024-.71973c1.833-1.06641,3.91113-2.2749,6.00586-3.41455a13.0961,13.0961,0,0,1,6.208-1.66162,10.46442,10.46442,0,0,1,9.21972,5.3418,11.12307,11.12307,0,0,1,1.1582,8.833,10.55782,10.55782,0,0,1-5.70214,6.39942c-5.76465,2.749-7.46485,5.58789-7.27735,12.15185.17481,6.10547,1.50782,8.38574,5.94532,10.166a12.70421,12.70421,0,0,1,3.0166,1.86181,10.95249,10.95249,0,0,1-6.45606,19.69336,10.90871,10.90871,0,0,1-4.68359-1.06543,30.35015,30.35015,0,0,1-3.78418-2.25878c-1.90918-1.26954-3.71289-2.46875-5.23242-2.46924-.99512,0-2.38672,1.07959-3.7334,2.124a15.79856,15.79856,0,0,1-4.84375,2.9043c-3.29,1.01758-4.13574,2.46679-3.76856,6.46094a23.10409,23.10409,0,0,1-.584,7.7163A10.40351,10.40351,0,0,1,407.294,192.03076Zm-.23438-66.36572a12.90582,12.90582,0,0,0,.16406,25.811l.11914-.00048a12.9479,12.9479,0,0,0,9.18946-3.95508,12.75612,12.75612,0,0,0,3.71093-9.12891A12.90934,12.90934,0,0,0,407.11621,125.665v-2Z" transform="translate(-145.00733 -84.86377)"/></svg>