<svg id="Layer_1" data-name="Layer 1" xmlns="http://www.w3.org/2000/svg" viewBox="0 0 412.94279 412.86914"><path d="M152.01465,446.59961l-.41553-.20313c-.19775-.09668-.394-.21093-.58887-.32812-.08837-.05274-.17382-.11133-.2622-.1543-32.72608-4.02929-57.26221-33.09375-57.09034-67.64941.26368-52.93653.22852-106.76367.19434-158.81885-.01807-28.00879-.03711-56.9707-.00928-85.457a77.41909,77.41909,0,0,1,1.376-15.45313,65.89835,65.89835,0,0,1,63.75879-52.852c2.2456-.043,4.63525-.063,7.521-.063,2.123,0,4.26025.01074,6.42382.02148q2.3379.01172,4.72217.02-.00952-1.6604-.02637-3.28125c-.03564-3.80859-.06933-7.40674.06788-11.061a17.98122,17.98122,0,0,1,17.8081-17.58349,18.48335,18.48335,0,0,1,5.80811.94824,18.00065,18.00065,0,0,1,12.22461,17.04248c.083,3.667.062,7.36426.0415,10.93994q-.00805,1.38209-.01416,2.75684h67.8706q-.00219-1.322-.00585-2.62695c-.00733-3.34424-.01514-6.61817.01513-9.89161.10205-11.11035,7.65186-19.17431,17.95166-19.17431,10.51856.03759,17.87891,7.96875,17.97168,19.28711.02637,3.25781.01953,6.51513.0127,9.8081l-.00391,2.57422h68.65625l-.00293-2.55566c-.00488-3.252-.00976-6.42578.00977-9.6001.07324-11.48975,7.45215-19.51416,17.94433-19.51416l.15625.00049c10.41114.07959,17.74121,8.03857,17.82617,19.35449.02442,3.24121.01856,6.48291.01172,9.84131l-.00293,2.769c1.80957-.01172,3.59765-.03711,5.36817-.062,2.37988-.03369,4.72851-.0669,7.05957-.0669,3.22363,0,5.89062.064,8.3916.20118,26.0957,1.43017,45.25488,13.87988,56.94336,37.00341,2.30566,4.562,3.64551,9.58692,4.94043,14.44678.57617,2.16309,1.17285,4.3999,1.84082,6.53467l.09082.2915V304.583l-.27344.46777c-.46679.79688-.89355,1.63672-1.34472,2.52539a23.44019,23.44019,0,0,1-3.81543,5.92871,16.70867,16.70867,0,0,1-12.12891,5.37793,18.956,18.956,0,0,1-6.52344-1.21777c-6.73437-2.46973-10.7832-7.67676-11.709-15.05957a31.04026,31.04026,0,0,1-.14844-4.26465c.00488-.39062.00977-.78027.00977-1.16894l-.002-63.83594q0-49.92554-.00879-99.85156c-.0039-13.44434-5.69043-23.07715-16.90234-28.63135a31.33117,31.33117,0,0,0-11.4541-3.00733c-2.582-.18115-5.39551-.26562-8.85352-.26562-2.1416,0-4.30566.03125-6.50586.0625-1.6455.02344-3.31054.04736-5,.05859.00684,1.03906.01856,2.07617.0293,3.11084.041,3.68262.083,7.49024-.07715,11.2417a17.81645,17.81645,0,0,1-27.38281,14.69287,17.6335,17.6335,0,0,1-8.458-15.38135c-.05371-3.49414-.041-6.92772-.02734-10.5625q.00439-1.4436.00879-2.91015h-68.666l.00293,2.43554c.00586,3.24415.01172,6.501-.01074,9.75782-.0791,11.3164-7.38086,19.30322-17.75733,19.42285l-.23193.001c-10.48437.001-17.86084-8.00049-17.938-19.457-.02148-3.18164-.01611-6.36328-.01025-9.62939l.00244-2.56494H213.56592l.00342,2.49023c.00634,3.293.01318,6.56446-.01221,9.83643-.08838,11.3208-7.43506,19.26709-17.86621,19.32373H195.583c-10.29541.00049-17.84375-8.05274-17.94922-19.14893-.03027-3.22509-.023-6.45019-.01514-9.9541.00244-1.0293.00489-2.08252.00635-3.167-2.28369.08594-4.55664.123-6.772.15967-6.44239.106-12.52735.20605-18.417,1.40088-13.43116,2.72558-22.33692,14.1748-22.687,29.16845-.07714,3.29493-.0581,6.6626-.04,9.91895.00831,1.46875.01661,2.9375.01661,4.40625l.00146,60.47168q.00366,85.74317-.01465,171.4873c-.00439,14.06739,5.49951,23.56348,16.82617,29.03028a33.67671,33.67671,0,0,0,14.082,3.22558c50.979.1084,105.45459.16114,166.53955.16114q56.23827,0,112.46386-.04883c17.2627-.01367,29.69922-11.73926,30.94629-29.17676.26856-3.75195,1.13184-9.23828,5.51563-13.54785a17.70593,17.70593,0,0,1,12.47461-5.12891,17.89267,17.89267,0,0,1,16.2539,10.27637c.40235.8418.77051,1.70019,1.1377,2.55762.1582.37109.64746,1.49609.64746,1.49609V388.294l-.15137.36718c-.09375.22657-.20117.4502-.31054.67383a3.89477,3.89477,0,0,0-.27832.65527c-3.74122,23.21485-16.25391,40.07715-37.19043,50.1211a78.71945,78.71945,0,0,1-13.90333,4.64551c-2.07226.55175-4.21582,1.12207-6.26757,1.7539l-.28809.08887Z" transform="translate(-93.65682 -33.73047)"/><path d="M356.65234,360.39648c-2.97168,0-5.43164-.07031-7.74414-.2207-18.082-1.18262-30.94238-13.78223-32-31.35351a350.40048,350.40048,0,0,1,.01953-42.52344c1.0625-17.1875,13.78907-29.9336,30.94825-30.99512,7.09082-.43848,14.27832-.66113,21.36425-.66113,7.20118,0,14.45313.22949,21.55274.68262,17.02539,1.08789,29.67187,13.7207,30.75586,30.7207a328.03143,328.03143,0,0,1-.02832,43.334c-1.23047,17.75391-15.09863,30.47461-33.72656,30.9336-2.06446.05078-4.25977.07519-6.91016.07519-1.91992,0-3.84082-.01269-5.76172-.02539-1.91211-.01172-3.82324-.02441-5.73535-.02441h-2v-.07617c-1.44434.01269-2.88867.0371-4.333.06152C360.919,360.36035,358.78418,360.39648,356.65234,360.39648Zm29.20508-36.207V291.15234h-33.04v33.03711Z" transform="translate(-93.65682 -33.73047)"/><path d="M195.32373,221.35791a18.03379,18.03379,0,0,1-17.66992-17.87744,17.94086,17.94086,0,1,1,35.88135.09228,17.99878,17.99878,0,0,1-17.94239,17.78711Z" transform="translate(-93.65682 -33.73047)"/><path d="M264.95654,221.35791A18.03355,18.03355,0,0,1,247.12012,203.647a18.02815,18.02815,0,0,1,17.82031-18.17676l.12061-.00048a17.94441,17.94441,0,0,1,.001,35.88867Z" transform="translate(-93.65682 -33.73047)"/><path d="M334.2373,221.35742a18.02987,18.02987,0,0,1-17.64843-18.3457,18.04711,18.04711,0,0,1,17.9375-17.54151,17.94483,17.94483,0,0,1-.001,35.88965Z" transform="translate(-93.65682 -33.73047)"/><path d="M403.99316,221.35791a18.024,18.024,0,0,1-17.94043-18.05127,17.98748,17.98748,0,0,1,17.94141-17.8374l.21875.001a18.035,18.035,0,0,1,17.72168,17.82667,18.02485,18.02485,0,0,1-17.93555,18.061Z" transform="translate(-93.65682 -33.73047)"/><path d="M195.59326,290.83887a18.02254,18.02254,0,0,1-17.93945-17.98047,18.03475,18.03475,0,0,1,17.64062-17.90723l.29834-.00195a18.00485,18.00485,0,0,1,17.94239,17.75683,18.0244,18.0244,0,0,1-17.86426,18.13282Z" transform="translate(-93.65682 -33.73047)"/><path d="M264.56689,290.833a18.02574,18.02574,0,0,1-17.43554-18.54395,18.09384,18.09384,0,0,1,17.93114-17.33984l.2671.00195a18.03114,18.03114,0,0,1,17.67139,18.3252,18.044,18.044,0,0,1-17.939,17.56347C264.897,290.83984,264.73291,290.83789,264.56689,290.833Z" transform="translate(-93.65682 -33.73047)"/><path d="M195.436,360.31934a18.03027,18.03027,0,0,1-17.78223-18.21485,18.03416,18.03416,0,0,1,17.875-17.67285,17.94439,17.94439,0,1,1,.0664,35.88867Z" transform="translate(-93.65682 -33.73047)"/><path d="M264.70068,360.31934a17.94571,17.94571,0,0,1,.36036-35.8877h.13525a18.02913,18.02913,0,0,1,17.80517,18.19141,18.01665,18.01665,0,0,1-17.94287,17.69922Z" transform="translate(-93.65682 -33.73047)"/></svg>