<svg id="Layer_1" data-name="Layer 1" xmlns="http://www.w3.org/2000/svg" viewBox="0 0 409.6539 409.64842"><path d="M696,589.6H672a21.75807,21.75807,0,0,0-3.091-.6563c-28.58575-1.95093-55.76562-9.28884-80.73325-23.2581-67.34483-37.679-103.91216-95.31077-108.65048-172.34927A187.81874,187.81874,0,0,1,503.28435,288.687c37.57723-67.20357,95.244-103.61844,172.11552-108.36,36.94322-2.27871,72.18707,5.84129,104.67635,23.69445q86.69377,47.639,105.49785,145.12546c1.49461,7.80409,2.17051,15.765,3.22593,23.65313v24a27.3398,27.3398,0,0,0-.67861,3.44912c-1.9961,28.57136-9.53374,55.64522-23.349,80.681-31.84614,57.71108-80.25178,93.01318-145.09082,105.44053C711.86843,587.86809,703.89771,588.54355,696,589.6ZM856.79641,384.99084c.16509-95.22373-76.99939-172.64855-172.40557-172.98726-95.29455-.33832-173.02141,77.12743-173.18726,172.60548-.16541,95.22326,76.99962,172.64868,172.4055,172.9873C778.90393,557.93462,856.63091,480.46877,856.79641,384.99084Z" transform="translate(-479.1461 -179.95158)"/><path d="M668.00227,414.56846c.00123-6.39834-.07631-12.79788.01979-19.19478.13718-9.13269,5.63065-15.53421,14.74195-16.30456,10.559-.89277,19.86372-4.00932,26.40725-12.78715,7.76853-10.42107,9.13909-21.82892,3.37234-33.4647-5.9844-12.07494-16.18484-18.27021-29.71606-17.754-16.817.64162-28.89354,12.57033-30.666,29.54538-.17976,1.72168-.15836,3.47943-.49693,5.16693a15.95229,15.95229,0,0,1-31.60236-3.42978c.56605-22.48972,10.00165-40.56287,28.83531-52.80737,21.48876-13.97069,44.337-14.85756,66.58055-2.17915,22.85456,13.02668,33.5718,33.67778,32.306,59.9341-1.23731,25.66463-19.24583,48.29839-44.07015,56.258-2.9623.94985-3.90405,2.179-3.793,5.24.25114,6.92244.1216,13.86057.068,20.7917-.07817,10.111-6.7634,17.18145-16.09875,17.11362-9.1911-.06679-15.78151-7.0551-15.87749-16.93337C667.95056,427.36565,668.001,420.9668,668.00227,414.56846Z" transform="translate(-479.1461 -179.95158)"/><path d="M683.89475,502.696a19.89635,19.89635,0,1,1,20.07554-19.59139A19.98586,19.98586,0,0,1,683.89475,502.696Z" transform="translate(-479.1461 -179.95158)"/></svg>