<svg id="Layer_1" data-name="Layer 1" xmlns="http://www.w3.org/2000/svg" viewBox="0 0 340.17662 340.02246"><path d="M383.86328,409.97266c-8.15039-.08594-13.69726-5.7959-13.80371-14.208-.03711-2.97363-.02734-5.89746-.01758-8.72461q.00294-1.08984.00586-2.13867l-19.583-8.21094q-.54784.6123-1.13086,1.2666c-1.77636,1.99219-3.78906,4.25-5.9375,6.3916A14.79365,14.79365,0,0,1,332.957,389.0791a14.74389,14.74389,0,0,1-14.02441-13.9375c-.0166-3.78125,1.6582-7.46777,4.84375-10.66113,2.05761-2.06348,4.23242-4.07227,6.15039-5.84375.46875-.4336.92871-.85742,1.375-1.27246l-8.15235-19.31934s-4.60644.01074-5.93847.01074c-1.57617,0-3.18653-.00488-4.79785-.02148-8.542-.08594-14.17237-5.43164-14.34424-13.61816-.17481-8.377,5.50342-14.14161,14.13037-14.34375,1.62695-.03907,3.25488-.05079,4.85449-.05079,1.3291,0,2.63867.00879,3.91211.01661q1.0957.00585,2.15332.01171l8.13184-19.4121q-.66065-.61524-1.35352-1.25684c-1.94922-1.80762-3.96582-3.67676-5.95312-5.67676-6.36426-6.40137-6.65137-14.39159-.73438-20.35644a13.64862,13.64862,0,0,1,9.73926-4.37305c3.73437,0,7.41211,1.68262,10.63574,4.86621,2.00488,1.98047,3.91309,3.99512,5.75781,5.94336q.68262.72071,1.34472,1.418l19.36036-8.15527c-.00195-.66211-.00488-1.34278-.00683-2.03614-.01172-2.81836-.02344-5.73242.0205-8.71679.11914-8.08887,6.09375-14.24268,13.89551-14.31495l.13574-.00048c7.794,0,13.79493,6.07324,13.96,14.126.06153,2.98633.04493,5.92383.0293,8.76563q-.00586,1.1001-.00976,2.16113l19.73828,8.26758q.41015-.479.84863-.99317c1.61816-1.89843,3.45312-4.05078,5.47168-6.10546a15.82922,15.82922,0,0,1,11.127-5.14942,13.42475,13.42475,0,0,1,9.62793,4.207c5.8584,5.89746,5.41211,14.23535-1.11035,20.75-1.95019,1.94727-3.99609,3.81836-5.80176,5.46875-.38672.35449-.76562.7002-1.13281,1.03809l8.19824,19.52344s4.10156-.00977,5.36231-.00977c1.46484,0,2.9707.00488,4.47656.01953a15.94057,15.94057,0,0,1,11.39648,4.48438,13.62083,13.62083,0,0,1,3.80957,9.78125c-.09277,8.042-6.3496,13.68652-15.21582,13.72656-1.4414.00684-2.88476.00879-4.30664.00879l-5.56836-.00488-8.15039,19.42285c.46875.43847.957.89062,1.459,1.35547,2.13769,1.97949,4.56054,4.22363,6.83691,6.61621a13.63759,13.63759,0,0,1,2.34375,15.81445,13.41642,13.41642,0,0,1-11.68554,7.73242,11.77162,11.77162,0,0,1-2.09864-.19043,19.76554,19.76554,0,0,1-8.75683-4.26465,60.282,60.282,0,0,1-6.3545-6.46484c-.39257-.44238-.77636-.876-1.15332-1.29492l-19.38281,8.13965q.00293,1.00194.00781,2.05078c.0127,2.82129.02442,5.73926-.02246,8.72461-.13476,8.5459-5.75586,14.28808-13.98925,14.28808Zm.2334-119.98731a33.99436,33.99436,0,0,0-.334,67.98731l.25683.001a33.9943,33.9943,0,0,0,.19434-67.98828Z" transform="translate(-129.90835 -69.95117)"/><path d="M275.79346,217.96484A74.24418,74.24418,0,0,1,202.022,143.61328c.13282-40.61767,33.39063-73.66211,74.13672-73.66211l.31445.00049a74.00721,74.00721,0,0,1-.49121,148.01318Zm.29541-120.01123a46.05846,46.05846,0,0,0-32.6919,78.50586,45.60153,45.60153,0,0,0,32.49317,13.502,46.06487,46.06487,0,0,0,32.80517-78.502,45.6191,45.6191,0,0,0-32.51172-13.50586l-.09472-2Z" transform="translate(-129.90835 -69.95117)"/><path d="M154.72021,386.09277c-11.63037.001-17.40917-.59961-20.90673-4.15527-4.17725-4.24707-4.05225-11.834-3.80323-26.9502q.03882-2.3745.07764-5.01074a140.51219,140.51219,0,0,1,2.22363-23.7832c8.814-47.00977,49.44385-83.75585,96.60938-87.374,8.55322-.65577,17.72217-.94825,29.72949-.94825,4.99707,0,10.07568.04883,14.98731.0962,4.89892.04736,9.96484.09619,14.937.09619H289.02a12.91865,12.91865,0,0,1,9.25977,3.88964A14.33175,14.33175,0,0,1,302.333,252.165a13.77553,13.77553,0,0,1-14.01026,13.77344q-6.32592.03954-12.65283.03418-5.1394,0-10.2793-.01075-5.13646-.00732-10.27246-.01074c-6.21777,0-11.27295.01856-15.90918.0586-37.459.32128-69.02343,24.90527-78.54394,61.17382a56.56055,56.56055,0,0,0-1.86426,9.92676c-.396,5.22559-.60986,10.43848-.83642,15.957q-.09961,2.43018-.20655,4.92188l62.23828-.00391q26.65284,0,53.30323.01563a15.25383,15.25383,0,0,1,12.5542,5.90429,13.656,13.656,0,0,1,1.8413,12.30762,13.93205,13.93205,0,0,1-12.25293,9.72461c-.58007.04688-1.19043.06738-1.978.06738-.3291,0-1.61621-.01367-1.93018-.01367h-.74316q-15.93091,0-31.86377-.02539-15.93018-.01758-31.8584-.02441c-15.91992,0-29.03076.02832-41.26074.08984q-2.41626.01171-4.60889.0293C158.85986,386.07812,156.70459,386.09277,154.72021,386.09277Z" transform="translate(-129.90835 -69.95117)"/></svg>