<svg id="Layer_1" data-name="Layer 1" xmlns="http://www.w3.org/2000/svg" viewBox="0 0 388 388.00049"><path d="M187.5752,434.001l-.38819-.17286c-1.74365-.77539-3.59131-1.49707-5.37842-2.19531-4.11328-1.60742-8.36718-3.26855-12.0581-5.82617-9.69238-6.71387-14.939-16.92773-15.1709-29.53516-.23438-12.68261-.2417-26.07226-.023-40.93359a38.38071,38.38071,0,0,1,37.97852-37.76562c31.30468-.07618,62.84619-.11426,93.748-.11426,31.293,0,62.8291.03906,93.73438.11719,20.82129.05175,37.49316,16.65625,37.95605,37.80273.043,1.96387.03125,3.90137.01953,5.95215l-.00586,1.0918c.51368.04.98536.06933,1.44629.06933l2.67383.00293q11.72462.01026,23.45117.01465,8.49464,0,16.98731-.01465c9.97754-.01953,15.93945-6.02246,15.94726-16.05957.02246-27.27246.02246-52.53613-.001-77.23535-.00977-9.96-6.01172-15.9209-16.05567-15.94434q-2.32323-.00585-4.64746-.00488-6.55224,0-13.10547.02539c.26661.28809.53028.57617.791.86719a13.29607,13.29607,0,0,1-.12012,18.33984,13.00361,13.00361,0,0,1-18.64648.208c-7.60742-7.39453-15.5586-15.34766-23.62989-23.6377a13.05142,13.05142,0,0,1-.02832-18.08349c7.72559-7.94434,15.67579-15.897,23.62989-23.6377a13.183,13.183,0,0,1,18.79785,18.48291,12.75385,12.75385,0,0,1-.95606.94141c1.2793.02637,2.56153.03467,3.84375.03467,1.3086,0,2.61817-.00879,3.92774-.01758,1.31836-.00928,2.63672-.01856,3.95508-.01856a106.12732,106.12732,0,0,1,13.87011.72559c17.49414,2.334,30.585,14.96729,34.16211,32.97022a3.86649,3.86649,0,0,0,.27735.65625c.09961.20507.19824.41113.28613.61914l.15625.37207v91.73828l-.31445.49218c-.0918.14356-.19727.28516-.30469.42579-.01465.01757-.02832.03613-.043.05371-4.86035,21.71582-20.40625,34.1748-42.68066,34.1914-5.33985.00391-28.82227.00391-28.82227.00391l-14.84277-.00195q.00293.56982.00488,1.12011c.00977,2.00586.01855,3.90039-.0166,5.76953a38.42847,38.42847,0,0,1-26.46485,36.126c-1.48437.49707-2.99316.92188-4.45313,1.333-.668.18848-1.335.376-2,.57031l-.27538.08106Zm47.55273-90.00391q-20.36133,0-40.71973.01074c-8.5.00489-13.38476,4.877-13.40185,13.36719-.0249,12.18652-.0249,24.54395,0,36.73047.01709,8.50586,4.897,13.38574,13.38818,13.38769q45.92286.01026,91.8457.00977,45.92286,0,91.84571-.00977c8.501-.00195,13.38769-4.87695,13.40722-13.375q.03663-16.06786.00782-32.13769l-.00293-3.8457c-.00684-9.50782-4.63477-14.12989-14.14844-14.13184Z" transform="translate(-117 -46.00049)"/><path d="M286.17871,162.54639c-31.12842,0-62.64062-.04053-93.66016-.12061-21.04052-.05469-37.72363-16.81592-37.981-38.15869-.15186-12.62939-.08985-25.46436-.02979-37.87695l.00537-1.145c.09327-19.28125,12.41065-34.4043,31.37989-38.52832a4.36761,4.36761,0,0,0,.7373-.29639c.2041-.09424.40869-.188.61524-.27246l.36279-.14746H384.79492l.2832.08545c.73926.22314,1.48243.437,2.22461.65088,1.623.46777,3.30079.95117,4.94434,1.5332a37.97322,37.97322,0,0,1,25.69238,35.46191c.2002,14.52637.2002,27.91162.002,40.92041a37.94334,37.94334,0,0,1-37.9668,37.77393C348.80078,162.50586,317.24316,162.54639,286.17871,162.54639Zm51.13672-26.542q20.3877,0,40.77344-.01123c8.5-.00537,13.38574-4.88134,13.40429-13.37841.02735-12.18555.02735-24.54346,0-36.7295-.01855-8.5-4.90234-13.37548-13.39648-13.37744q-45.92431-.01025-91.84668-.00976-45.92284,0-91.84521.00976c-8.49756.002-13.38135,4.875-13.39844,13.37061q-.033,15.94042-.00733,31.88037l.00293,4.10254c.00635,9.51074,4.6333,14.13525,14.14551,14.13721l91.0957.002Z" transform="translate(-117 -46.00049)"/><path d="M250.2002,298.28906c-29.20655,0-60.1792-.02636-94.68653-.08008-18.7583-.02929-33.95019-12.63769-37.80322-31.373a4.19943,4.19943,0,0,0-.28662-.71c-.09619-.20606-.1919-.41309-.27637-.62207L117,265.1416V214.87988l.13281-.34619c.53955-1.40527,1.03614-2.89111,1.51709-4.32764a49.53843,49.53843,0,0,1,4.062-9.75878c7.20948-12.11329,18.28955-18.53956,32.04248-18.584,31.5-.102,64.24854-.15381,97.335-.15381,29.22949,0,59.68115.04053,90.5083.12012,20.918.05371,37.543,16.69727,37.84961,37.89062.19335,13.45264.19335,27.09522,0,40.54737a38.10986,38.10986,0,0,1-38.21778,37.92285C312.94434,298.25684,282.84131,298.28906,250.2002,298.28906Zm50.47265-26.53515q19.96436,0,39.92578-.01075c8.49317-.00488,13.376-4.88476,13.39453-13.38867.02735-12.18554.02735-24.54345,0-36.729-.01855-8.49365-4.90625-13.36621-13.4082-13.36817q-45.92139-.00951-91.84521-.00976-45.92286,0-91.84571.01025c-8.49072.002-13.3706,4.87891-13.38818,13.38086q-.03222,16.05176-.00635,32.10254l.00244,3.88086c.00635,9.50391,4.63672,14.124,14.15576,14.126l91.0962.002Z" transform="translate(-117 -46.00049)"/><path d="M280.12061,389.00391q-10.38429,0-20.76563-.00782c-8.77441-.00781-14.73877-5.26464-14.8418-13.08105a12.50116,12.50116,0,0,1,3.53955-9.17383c2.69385-2.73047,6.74073-4.23535,11.39454-4.23633,0,0,38.27587-.01074,52.541-.01074q23.35986,0,46.71484.01953a14.50085,14.50085,0,0,1,12.335,6.3086,12.54846,12.54846,0,0,1,.8291,12.13769c-2.34375,5.2627-6.79395,8.04395-12.86914,8.04395q-10.7754-.00734-21.52344-.00684Z" transform="translate(-117 -46.00049)"/><path d="M212.74609,388.98828A13.36661,13.36661,0,0,1,199.51318,375.583a13.282,13.282,0,0,1,13.23389-13.07129,13.4463,13.4463,0,0,1,13.23731,13.18164,13.284,13.284,0,0,1-13.07032,13.29394Z" transform="translate(-117 -46.00049)"/><path d="M279.85547,117.50635q-10.45166,0-20.90283-.01416c-8.41748-.01367-14.35547-5.40332-14.43946-13.10694a12.83263,12.83263,0,0,1,3.65137-9.25439,14.652,14.652,0,0,1,10.55859-4.11865q25.8772-.019,51.75635-.02,24.126,0,48.249.02148A14.46689,14.46689,0,0,1,371.044,97.33154a12.55242,12.55242,0,0,1,.8125,12.15674c-2.35157,5.24512-6.80567,8.01709-12.88184,8.01709q-10.98633-.01024-21.93848-.0083Z" transform="translate(-117 -46.00049)"/><path d="M212.74707,117.48828a13.31586,13.31586,0,0,1-13.2334-12.96533,13.35736,13.35736,0,0,1,13.23389-13.51172,13.448,13.448,0,0,1,13.23682,13.18262,13.28428,13.28428,0,0,1-13.07081,13.29345Z" transform="translate(-117 -46.00049)"/><path d="M268.68848,253.25879q-23.71949,0-47.43262-.02246a14.4576,14.4576,0,0,1-12.31837-6.34082,12.52844,12.52844,0,0,1-.79345-12.15332c2.36377-5.23291,6.81739-7.999,12.87989-7.999q11.13427.01466,22.21484.0127l56.65283-.0083q10.39307,0,20.78613.00781c8.78223.00733,14.7334,5.2793,14.80665,13.11914a12.59778,12.59778,0,0,1-3.6045,9.20264,15.24839,15.24839,0,0,1-10.99316,4.167Q294.79053,253.25586,268.68848,253.25879Z" transform="translate(-117 -46.00049)"/><path d="M175.24658,253.23828a13.315,13.315,0,0,1-13.23291-12.9668,13.35651,13.35651,0,0,1,13.23389-13.51025,13.44767,13.44767,0,0,1,13.23682,13.18408,13.28322,13.28322,0,0,1-13.07178,13.292Z" transform="translate(-117 -46.00049)"/></svg>