<svg id="Layer_1" fill="#7a7a7a" data-name="Layer 1" xmlns="http://www.w3.org/2000/svg" viewBox="0 0 408.64948 408.78731"><path d="M93,432.26715V408.31393c.3264-2.87235.6588-5.744.97829-8.61712,4.891-43.98479,21.68993-82.78476,51.33739-115.68187,31.4768-34.927,70.47481-56.73356,116.87741-64.94609,7.69039-1.36108,15.4848-2.13428,23.23115-3.17916l23.95323,0c6.83859.85814,13.717,1.4783,20.50931,2.61321,42.68951,7.13282,79.89118,25.50029,110.50825,56.0928,45.92528,45.88843,66.13387,101.66434,60.26259,166.24817-3.94125,43.354-20.90215,81.67274-49.89872,114.22789-38.5045,43.22994-86.94969,66.5297-144.77059,69.35031-40.46631,1.97393-78.49491-7.50879-113.08152-28.68687-52.85593-32.3647-85.3145-79.17585-96.72269-140.267C94.7528,447.80363,94.04371,440.00414,93,432.26715ZM297.43552,247.638c-95.2192-.04546-172.5109,77.17058-172.68726,172.51822-.1759,95.1012,77.03763,172.47969,172.41862,172.787,95.1799.3066,172.97177-77.40926,172.88653-172.7176C469.96818,324.92624,392.71179,247.68344,297.43552,247.638Z" transform="translate(-92.99999 -215.88969)"/><path d="M322.33935,420.10633a39.32339,39.32339,0,0,1-4.57422-3.22777q-31.51833-31.4248-62.96931-62.91716c-4.72224-4.72016-6.60957-10.2578-4.50049-16.73336,1.99-6.11,6.37651-9.69879,12.67629-10.76a14.53967,14.53967,0,0,1,13.16435,4.23679q39.29479,39.17226,78.44309,78.491c6.84015,6.89447,6.29651,16.10212-.97123,23.40744q-24.07054,24.195-48.25988,48.27189c-9.88166,9.87622-19.62867,19.8926-29.69474,29.57723-9.19157,8.84325-23.40534,4.88872-26.50854-7.16915a14.7516,14.7516,0,0,1,2.7393-13.17364,43.12888,43.12888,0,0,1,3.75393-4.12722q30.99-31.108,62.01989-62.17617C318.68628,422.777,319.94846,421.98123,322.33935,420.10633Z" transform="translate(-92.99999 -215.88969)"/></svg>